<svg width="48.000000" height="48.000000" viewBox="0 0 48 48" fill="none" xmlns="http://www.w3.org/2000/svg" xmlns:xlink="http://www.w3.org/1999/xlink">
	<desc>
			Created with Pixso.
	</desc>
	<defs>
		<clipPath id="clip49_1997">
			<rect id="fill/logos/facebook-circle-fill" width="24.000000" height="24.000000" transform="translate(12.000000 12.000000)" fill="white" fill-opacity="0"/>
		</clipPath>
	</defs>
	<rect id="Frame 44111" rx="24.000000" width="48.000000" height="48.000000" fill="#1B212C" fill-opacity="1.000000"/>
	<rect id="fill/logos/facebook-circle-fill" width="24.000000" height="24.000000" transform="translate(12.000000 12.000000)" fill="#FFFFFF" fill-opacity="0"/>
	<g clip-path="url(#clip49_1997)">
		<path id="Vector" d="M24 16.36C19.78 16.36 16.36 19.78 16.36 24C16.36 27.81 19.15 30.97 22.8 31.54L22.8 26.2L20.86 26.2L20.86 24L22.8 24L22.8 22.31C22.8 20.4 23.94 19.34 25.69 19.34C26.52 19.34 27.4 19.49 27.4 19.49L27.4 21.37L26.43 21.37C25.48 21.37 25.19 21.96 25.19 22.56L25.19 24L27.31 24L26.97 26.2L25.19 26.2L25.19 31.54C28.84 30.97 31.63 27.81 31.63 24C31.63 19.78 28.21 16.36 24 16.36Z" fill="#FFFFFF" fill-opacity="1.000000" fill-rule="nonzero"/>
	</g>
</svg>
