<svg width="1440.000000" height="660.000000" viewBox="0 0 1440 660" fill="none" xmlns="http://www.w3.org/2000/svg" xmlns:xlink="http://www.w3.org/1999/xlink">
	<desc>
			Created with Pixso.
	</desc>
	<defs>
		<clipPath id="clip49_1944">
			<rect id="Testimonials" width="1440.000000" height="660.000000" fill="white" fill-opacity="0"/>
		</clipPath>
	</defs>
	<rect id="Testimonials" width="1440.000000" height="660.000000" fill="#E6F6F4" fill-opacity="1.000000"/>
	<g clip-path="url(#clip49_1944)">
		<rect id="Rectangle" x="2183.401855" y="-334.291992" rx="80.000000" width="871.000000" height="1337.000000" transform="rotate(45 2183.401855 -334.291992)" fill="#00A991" fill-opacity="1.000000"/>
		<mask id="mask49_1949" mask-type="alpha" maskUnits="userSpaceOnUse" x="995.000000" y="300.707031" width="400.000000" height="400.000000">
			<circle id="Mask" cx="1195.000000" cy="500.707031" r="200.000000" fill="#000000" fill-opacity="1.000000"/>
		</mask>
		<g mask="url(#mask49_1949)">
			<mask id="mask_49_1950" fill="white">
				<path id="Combined Shape" d="M1094.32 95.3413L1094.31 95.3271L1093.6 94.6196L1095.02 93.2065L1095.72 93.9141L1095.74 93.9282L1619.68 618.573L1619.69 618.587L1620.4 619.295L1618.98 620.708L1618.28 620.001L1618.26 619.986L1094.32 95.3413ZM1077.35 112.312L1077.34 112.298L1076.63 111.59L1078.05 110.177L1078.75 110.885L1078.77 110.899L1602.71 635.544L1602.72 635.558L1603.43 636.266L1602.01 637.679L1601.3 636.971L1601.29 636.957L1077.35 112.312ZM1060.38 129.283L1060.37 129.269L1059.66 128.561L1061.08 127.147L1061.78 127.855L1061.8 127.869L1585.73 652.515L1585.75 652.528L1586.46 653.236L1585.04 654.649L1584.33 653.941L1584.32 653.928L1060.38 129.283ZM1043.41 146.253L1043.4 146.239L1042.69 145.531L1044.11 144.118L1044.81 144.826L1044.83 144.84L1568.76 669.484L1568.78 669.499L1569.49 670.207L1568.07 671.62L1567.36 670.912L1567.35 670.898L1043.41 146.253ZM1026.44 163.224L1026.43 163.209L1025.72 162.502L1027.14 161.089L1027.84 161.796L1027.86 161.811L1551.79 686.455L1551.81 686.47L1552.51 687.177L1551.1 688.591L1550.39 687.883L1550.38 687.869L1026.44 163.224ZM1009.47 180.194L1009.46 180.18L1008.75 179.473L1010.16 178.06L1010.87 178.767L1010.89 178.781L1534.82 703.426L1534.84 703.44L1535.54 704.147L1534.13 705.561L1533.42 704.854L1533.41 704.839L1009.47 180.194ZM992.5 197.165L992.486 197.15L991.779 196.443L993.194 195.03L993.901 195.737L993.915 195.752L1517.85 720.396L1517.87 720.411L1518.57 721.118L1517.16 722.531L1516.45 721.824L1516.44 721.81L992.5 197.165ZM975.529 214.136L975.515 214.121L974.808 213.414L976.224 212L976.93 212.708L976.944 212.723L1500.88 737.367L1500.9 737.381L1501.6 738.089L1500.19 739.502L1499.48 738.795L1499.47 738.78L975.529 214.136ZM958.559 231.106L958.544 231.092L957.838 230.385L959.253 228.971L959.96 229.679L959.974 229.692L1483.91 754.338L1483.93 754.352L1484.63 755.06L1483.22 756.473L1482.51 755.766L1482.5 755.751L958.559 231.106ZM941.588 248.076L941.574 248.062L940.867 247.354L942.282 245.941L942.989 246.649L943.003 246.663L1466.94 771.309L1466.96 771.322L1467.66 772.03L1466.25 773.443L1465.54 772.735L1465.53 772.722L941.588 248.076ZM924.617 265.047L924.604 265.033L923.897 264.325L925.312 262.912L926.019 263.62L926.033 263.634L1449.97 788.278L1449.98 788.293L1450.69 789L1449.28 790.414L1448.57 789.706L1448.56 789.692L924.617 265.047ZM907.647 282.018L907.633 282.004L906.926 281.296L908.341 279.883L909.048 280.59L909.062 280.604L1433 805.249L1433.01 805.264L1433.72 805.971L1432.31 807.385L1431.6 806.677L1431.58 806.662L907.647 282.018ZM890.677 298.988L890.662 298.974L889.956 298.267L891.371 296.854L892.077 297.561L892.092 297.575L1416.03 822.22L1416.04 822.234L1416.75 822.941L1415.33 824.354L1414.63 823.647L1414.61 823.633L890.677 298.988ZM873.706 315.959L873.692 315.944L872.985 315.237L874.4 313.824L875.107 314.531L875.121 314.546L1399.06 839.19L1399.07 839.205L1399.78 839.912L1398.36 841.325L1397.66 840.618L1397.64 840.604L873.706 315.959ZM856.735 332.93L856.721 332.915L856.014 332.208L857.43 330.794L858.136 331.502L858.15 331.516L1382.09 856.161L1382.1 856.175L1382.81 856.883L1381.39 858.296L1380.69 857.589L1380.67 857.574L856.735 332.93ZM839.765 349.9L839.75 349.886L839.044 349.178L840.459 347.765L841.166 348.473L841.18 348.486L1365.12 873.132L1365.13 873.146L1365.84 873.854L1364.42 875.267L1363.72 874.559L1363.7 874.545L839.765 349.9ZM822.794 366.87L822.78 366.856L822.073 366.148L823.489 364.735L824.195 365.443L824.209 365.457L1348.15 890.103L1348.16 890.116L1348.87 890.824L1347.45 892.237L1346.75 891.529L1346.73 891.516L822.794 366.87ZM805.824 383.841L805.81 383.827L805.103 383.119L806.518 381.706L807.225 382.414L807.239 382.428L1331.18 907.072L1331.19 907.087L1331.9 907.795L1330.48 909.208L1329.78 908.5L1329.76 908.486L805.824 383.841Z" clip-rule="evenodd" fill="" fill-opacity="1.000000" fill-rule="evenodd"/>
			</mask>
			<path id="Combined Shape" d="M1094.32 95.3413L1094.31 95.3271L1093.6 94.6196L1095.02 93.2065L1095.72 93.9141L1095.74 93.9282L1619.68 618.573L1619.69 618.587L1620.4 619.295L1618.98 620.708L1618.28 620.001L1618.26 619.986L1094.32 95.3413ZM1077.35 112.312L1077.34 112.298L1076.63 111.59L1078.05 110.177L1078.75 110.885L1078.77 110.899L1602.71 635.544L1602.72 635.558L1603.43 636.266L1602.01 637.679L1601.3 636.971L1601.29 636.957L1077.35 112.312ZM1060.38 129.283L1060.37 129.269L1059.66 128.561L1061.08 127.147L1061.78 127.855L1061.8 127.869L1585.73 652.515L1585.75 652.528L1586.46 653.236L1585.04 654.649L1584.33 653.941L1584.32 653.928L1060.38 129.283ZM1043.41 146.253L1043.4 146.239L1042.69 145.531L1044.11 144.118L1044.81 144.826L1044.83 144.84L1568.76 669.484L1568.78 669.499L1569.49 670.207L1568.07 671.62L1567.36 670.912L1567.35 670.898L1043.41 146.253ZM1026.44 163.224L1026.43 163.209L1025.72 162.502L1027.14 161.089L1027.84 161.796L1027.86 161.811L1551.79 686.455L1551.81 686.47L1552.51 687.177L1551.1 688.591L1550.39 687.883L1550.38 687.869L1026.44 163.224ZM1009.47 180.194L1009.46 180.18L1008.75 179.473L1010.16 178.06L1010.87 178.767L1010.89 178.781L1534.82 703.426L1534.84 703.44L1535.54 704.147L1534.13 705.561L1533.42 704.854L1533.41 704.839L1009.47 180.194ZM992.5 197.165L992.486 197.15L991.779 196.443L993.194 195.03L993.901 195.737L993.915 195.752L1517.85 720.396L1517.87 720.411L1518.57 721.118L1517.16 722.531L1516.45 721.824L1516.44 721.81L992.5 197.165ZM975.529 214.136L975.515 214.121L974.808 213.414L976.224 212L976.93 212.708L976.944 212.723L1500.88 737.367L1500.9 737.381L1501.6 738.089L1500.19 739.502L1499.48 738.795L1499.47 738.78L975.529 214.136ZM958.559 231.106L958.544 231.092L957.838 230.385L959.253 228.971L959.96 229.679L959.974 229.692L1483.91 754.338L1483.93 754.352L1484.63 755.06L1483.22 756.473L1482.51 755.766L1482.5 755.751L958.559 231.106ZM941.588 248.076L941.574 248.062L940.867 247.354L942.282 245.941L942.989 246.649L943.003 246.663L1466.94 771.309L1466.96 771.322L1467.66 772.03L1466.25 773.443L1465.54 772.735L1465.53 772.722L941.588 248.076ZM924.617 265.047L924.604 265.033L923.897 264.325L925.312 262.912L926.019 263.62L926.033 263.634L1449.97 788.278L1449.98 788.293L1450.69 789L1449.28 790.414L1448.57 789.706L1448.56 789.692L924.617 265.047ZM907.647 282.018L907.633 282.004L906.926 281.296L908.341 279.883L909.048 280.59L909.062 280.604L1433 805.249L1433.01 805.264L1433.72 805.971L1432.31 807.385L1431.6 806.677L1431.58 806.662L907.647 282.018ZM890.677 298.988L890.662 298.974L889.956 298.267L891.371 296.854L892.077 297.561L892.092 297.575L1416.03 822.22L1416.04 822.234L1416.75 822.941L1415.33 824.354L1414.63 823.647L1414.61 823.633L890.677 298.988ZM873.706 315.959L873.692 315.944L872.985 315.237L874.4 313.824L875.107 314.531L875.121 314.546L1399.06 839.19L1399.07 839.205L1399.78 839.912L1398.36 841.325L1397.66 840.618L1397.64 840.604L873.706 315.959ZM856.735 332.93L856.721 332.915L856.014 332.208L857.43 330.794L858.136 331.502L858.15 331.516L1382.09 856.161L1382.1 856.175L1382.81 856.883L1381.39 858.296L1380.69 857.589L1380.67 857.574L856.735 332.93ZM839.765 349.9L839.75 349.886L839.044 349.178L840.459 347.765L841.166 348.473L841.18 348.486L1365.12 873.132L1365.13 873.146L1365.84 873.854L1364.42 875.267L1363.72 874.559L1363.7 874.545L839.765 349.9ZM822.794 366.87L822.78 366.856L822.073 366.148L823.489 364.735L824.195 365.443L824.209 365.457L1348.15 890.103L1348.16 890.116L1348.87 890.824L1347.45 892.237L1346.75 891.529L1346.73 891.516L822.794 366.87ZM805.824 383.841L805.81 383.827L805.103 383.119L806.518 381.706L807.225 382.414L807.239 382.428L1331.18 907.072L1331.19 907.087L1331.9 907.795L1330.48 909.208L1329.78 908.5L1329.76 908.486L805.824 383.841Z" clip-rule="evenodd" fill="#D8D8D8" fill-opacity="0.000000" fill-rule="evenodd" mask="url(#mask_49_1950)"/>
			<path id="Combined Shape" d="M1093.62 96.0483L1093.6 96.0342L1092.19 94.6187L1095.02 91.7925L1096.43 93.2075L1096.45 93.2217L1620.38 617.866L1620.4 617.88L1621.81 619.296L1618.98 622.122L1617.57 620.707L1617.55 620.693L1093.62 96.0483ZM1095.03 94.6348L1618.97 619.279L1618.98 619.294L1619.69 620.002L1618.98 620.708L1618.28 620.001L1619.69 618.587L1620.4 619.295L1619.69 620.002L1618.98 619.295L1618.97 619.28L1095.03 94.6348L1095.02 94.6206L1094.31 93.9131L1095.02 93.2065L1095.72 93.9141L1094.31 95.3271L1093.6 94.6196L1094.31 93.9131L1095.02 94.6206L1095.03 94.6348ZM1076.65 113.019L1076.63 113.004L1075.22 111.589L1078.05 108.763L1079.46 110.178L1079.48 110.192L1603.41 634.837L1603.43 634.851L1604.84 636.267L1602.01 639.093L1600.6 637.678L1600.58 637.664L1076.65 113.019ZM1078.06 111.605L1602 636.25L1602.01 636.265L1602.72 636.972L1602.01 637.679L1601.3 636.971L1602.72 635.558L1603.43 636.266L1602.72 636.972L1602.01 636.265L1602 636.25L1078.06 111.605L1078.05 111.591L1077.34 110.884L1078.05 110.177L1078.75 110.885L1077.34 112.298L1076.63 111.59L1077.34 110.884L1078.05 111.591L1078.06 111.605ZM1059.67 129.989L1059.66 129.975L1058.25 128.56L1061.08 125.733L1062.49 127.148L1062.5 127.163L1586.44 651.808L1586.46 651.821L1587.87 653.237L1585.04 656.063L1583.63 654.648L1583.61 654.635L1059.67 129.989ZM1061.09 128.576L1585.03 653.221L1585.04 653.235L1585.75 653.942L1585.04 654.649L1584.33 653.941L1585.75 652.528L1586.46 653.236L1585.75 653.942L1585.04 653.235L1585.03 653.221L1061.09 128.576L1061.08 128.562L1060.37 127.854L1061.08 127.147L1061.78 127.855L1060.37 129.269L1059.66 128.561L1060.37 127.854L1061.08 128.562L1061.09 128.576ZM1042.7 146.96L1042.69 146.946L1041.28 145.53L1044.11 142.704L1045.52 144.119L1045.53 144.133L1569.47 668.778L1569.49 668.792L1570.9 670.208L1568.07 673.034L1566.66 671.619L1566.64 671.605L1042.7 146.96ZM1044.12 145.546L1568.06 670.191L1568.07 670.206L1568.78 670.913L1568.07 671.62L1567.36 670.912L1568.78 669.499L1569.49 670.207L1568.78 670.913L1568.07 670.206L1568.06 670.191L1044.12 145.546L1044.1 145.532L1043.4 144.825L1044.11 144.118L1044.81 144.826L1043.4 146.239L1042.69 145.531L1043.4 144.825L1044.1 145.533L1044.12 145.547L1044.12 145.546ZM1025.73 163.93L1025.72 163.916L1024.31 162.501L1027.14 159.675L1028.55 161.09L1028.56 161.104L1552.5 685.749L1552.52 685.763L1553.93 687.178L1551.1 690.005L1549.69 688.59L1549.67 688.576L1025.73 163.93L1025.73 163.93ZM1027.15 162.517L1551.09 687.161L1551.1 687.176L1551.81 687.884L1551.1 688.591L1550.39 687.883L1551.81 686.47L1552.51 687.177L1551.81 687.884L1551.1 687.177L1551.09 687.162L1027.15 162.517L1027.13 162.503L1026.43 161.795L1027.14 161.089L1027.84 161.796L1026.43 163.209L1025.72 162.502L1026.43 161.795L1027.13 162.503L1027.15 162.517ZM1008.76 180.901L1008.75 180.887L1007.34 179.472L1010.17 176.645L1011.58 178.06L1011.59 178.075L1535.53 702.72L1535.54 702.733L1536.96 704.148L1534.13 706.976L1532.71 705.561L1532.7 705.547L1008.76 180.901ZM1010.18 179.488L1534.12 704.132L1534.13 704.146L1534.84 704.854L1534.13 705.561L1533.42 704.854L1534.84 703.44L1535.54 704.147L1534.84 704.854L1534.13 704.147L1534.12 704.133L1010.18 179.488L1010.16 179.474L1009.46 178.766L1010.16 178.06L1010.87 178.767L1009.46 180.18L1008.75 179.473L1009.46 178.766L1010.16 179.474L1010.18 179.488ZM991.792 197.871L991.778 197.857L990.365 196.442L993.195 193.615L994.608 195.031L994.623 195.045L1518.56 719.689L1518.57 719.703L1519.99 721.119L1517.16 723.945L1515.74 722.53L1515.73 722.517L991.792 197.871ZM993.207 196.458L1517.14 721.103L1517.16 721.117L1517.87 721.825L1517.16 722.531L1516.45 721.824L1517.87 720.411L1518.57 721.118L1517.87 721.825L1517.16 721.118L1517.15 721.104L993.207 196.458L993.193 196.444L992.487 195.736L993.194 195.03L993.901 195.737L992.486 197.15L991.779 196.443L992.487 195.736L993.193 196.444L993.208 196.458L993.207 196.458ZM974.822 214.842L974.807 214.828L973.394 213.413L976.225 210.586L977.638 212.001L977.652 212.016L1501.59 736.66L1501.6 736.674L1503.02 738.09L1500.19 740.916L1498.77 739.501L1498.76 739.487L974.822 214.842ZM976.237 213.429L1500.17 738.073L1500.19 738.088L1500.9 738.796L1500.19 739.502L1499.48 738.795L1500.9 737.381L1501.6 738.089L1500.9 738.796L1500.19 738.088L1500.17 738.074L976.237 213.429L976.223 213.415L975.516 212.707L976.224 212L976.93 212.708L975.515 214.121L974.808 213.414L975.516 212.707L976.223 213.415L976.237 213.429ZM957.851 231.812L957.837 231.799L956.424 230.384L959.254 227.557L960.667 228.972L960.681 228.986L1484.62 753.631L1484.63 753.645L1486.05 755.061L1483.22 757.887L1481.8 756.472L1481.79 756.458L957.851 231.812ZM959.266 230.399L1483.2 755.044L1483.22 755.059L1483.92 755.766L1483.22 756.473L1482.51 755.766L1483.93 754.352L1484.63 755.06L1483.92 755.766L1483.22 755.059L1483.2 755.044L959.266 230.399L959.252 230.385L958.545 229.678L959.253 228.971L959.96 229.679L958.544 231.092L957.838 230.385L958.545 229.678L959.252 230.386L959.266 230.399L959.266 230.399ZM940.88 248.783L940.866 248.769L939.453 247.354L942.283 244.527L943.697 245.942L943.711 245.957L1467.65 770.602L1467.66 770.615L1469.08 772.031L1466.25 774.857L1464.83 773.442L1464.82 773.429L940.881 248.783L940.88 248.783ZM942.296 247.37L1466.23 772.015L1466.25 772.029L1466.95 772.736L1466.25 773.443L1465.54 772.735L1466.96 771.322L1467.66 772.03L1466.95 772.736L1466.25 772.029L1466.23 772.015L942.296 247.37L942.281 247.355L941.575 246.648L942.282 245.941L942.989 246.649L941.574 248.062L940.867 247.354L941.575 246.648L942.281 247.355L942.296 247.37ZM923.91 265.754L923.896 265.739L922.482 264.324L925.313 261.498L926.726 262.913L926.74 262.928L1450.68 787.572L1450.69 787.586L1452.11 789.002L1449.28 791.828L1447.86 790.413L1447.85 790.399L923.91 265.754ZM925.325 264.341L1449.26 788.985L1449.28 789L1449.98 789.707L1449.28 790.414L1448.57 789.706L1449.98 788.293L1450.69 789L1449.98 789.707L1449.28 789L1449.26 788.985L925.325 264.341L925.311 264.326L924.604 263.619L925.312 262.912L926.019 263.62L924.604 265.033L923.897 264.325L924.604 263.619L925.311 264.326L925.325 264.341ZM906.94 282.725L906.926 282.711L905.512 281.295L908.342 278.469L909.756 279.884L909.769 279.897L1433.71 804.543L1433.72 804.557L1435.14 805.972L1432.3 808.799L1430.89 807.384L1430.88 807.37L906.939 282.725L906.94 282.725ZM908.354 281.312L1432.29 805.955L1432.31 805.97L1433.01 806.678L1432.31 807.385L1431.6 806.677L1433.01 805.264L1433.72 805.971L1433.01 806.678L1432.31 805.971L1432.29 805.956L908.355 281.312L908.34 281.297L907.634 280.589L908.341 279.883L909.048 280.59L907.633 282.004L906.926 281.296L907.634 280.589L908.34 281.297L908.354 281.311L908.354 281.312ZM889.969 299.695L889.955 299.682L888.542 298.266L891.372 295.439L892.785 296.854L892.799 296.868L1416.74 821.514L1416.75 821.527L1418.16 822.942L1415.33 825.77L1413.92 824.354L1413.91 824.34L889.969 299.695L889.969 299.695ZM891.384 298.281L1415.32 822.926L1415.34 822.94L1416.04 823.648L1415.33 824.354L1414.63 823.647L1416.04 822.234L1416.75 822.941L1416.04 823.648L1415.34 822.941L1415.32 822.927L891.385 298.282L891.37 298.268L890.663 297.56L891.371 296.854L892.077 297.561L890.662 298.974L889.956 298.267L890.663 297.56L891.369 298.267L891.384 298.281L891.384 298.281ZM872.999 316.666L872.985 316.651L871.571 315.236L874.401 312.409L875.814 313.825L875.828 313.839L1399.77 838.483L1399.78 838.497L1401.19 839.913L1398.36 842.739L1396.95 841.324L1396.94 841.311L872.998 316.665L872.999 316.666ZM874.413 315.252L1398.35 839.896L1398.37 839.911L1399.07 840.619L1398.36 841.325L1397.66 840.618L1399.07 839.205L1399.78 839.912L1399.07 840.619L1398.37 839.912L1398.35 839.897L874.414 315.253L874.399 315.238L873.693 314.53L874.4 313.824L875.107 314.531L873.692 315.944L872.985 315.237L873.693 314.53L874.399 315.237L874.413 315.252L874.413 315.252ZM856.028 333.637L856.014 333.622L854.6 332.207L857.431 329.38L858.844 330.795L858.858 330.809L1382.8 855.454L1382.81 855.468L1384.22 856.884L1381.39 859.71L1379.98 858.295L1379.97 858.281L856.028 333.636L856.028 333.637ZM857.443 332.223L1381.38 856.867L1381.39 856.882L1382.1 857.59L1381.39 858.296L1380.69 857.589L1382.1 856.175L1382.81 856.883L1382.1 857.59L1381.4 856.882L1381.38 856.867L857.443 332.224L857.429 332.209L856.722 331.501L857.43 330.794L858.136 331.502L856.721 332.915L856.014 332.208L856.722 331.501L857.428 332.208L857.442 332.223L857.443 332.223ZM839.058 350.607L839.043 350.593L837.63 349.178L840.46 346.351L841.873 347.766L841.887 347.779L1365.83 872.425L1365.84 872.438L1367.25 873.854L1364.42 876.681L1363.01 875.266L1363 875.252L839.057 350.606L839.058 350.607ZM840.472 349.193L1364.41 873.838L1364.42 873.853L1365.13 874.56L1364.42 875.267L1363.72 874.559L1365.13 873.146L1365.84 873.854L1365.13 874.56L1364.42 873.853L1364.41 873.838L840.473 349.193L840.458 349.179L839.751 348.472L840.459 347.765L841.166 348.473L839.75 349.886L839.044 349.178L839.751 348.472L840.458 349.179L840.472 349.192L840.472 349.193ZM822.087 367.577L822.073 367.563L820.659 366.147L823.49 363.321L824.903 364.736L824.917 364.75L1348.85 889.396L1348.87 889.409L1350.28 890.825L1347.45 893.651L1346.04 892.236L1346.02 892.223L822.087 367.577L822.087 367.577ZM823.502 366.164L1347.44 890.809L1347.45 890.823L1348.16 891.53L1347.45 892.237L1346.75 891.529L1348.16 890.116L1348.87 890.824L1348.16 891.53L1347.45 890.823L1347.44 890.809L823.502 366.164L823.488 366.149L822.781 365.442L823.489 364.735L824.195 365.443L822.78 366.856L822.073 366.148L822.781 365.442L823.487 366.149L823.501 366.163L823.502 366.164ZM805.116 384.548L805.102 384.534L803.688 383.118L806.519 380.292L807.932 381.707L807.946 381.721L1331.88 906.366L1331.9 906.38L1333.31 907.795L1330.48 910.622L1329.07 909.207L1329.05 909.193L805.116 384.548L805.116 384.548ZM806.531 383.135L1330.47 907.779L1330.48 907.793L1331.19 908.501L1330.48 909.208L1329.78 908.5L1331.19 907.087L1331.9 907.795L1331.19 908.501L1330.48 907.794L1330.47 907.779L806.532 383.135L806.517 383.12L805.811 382.413L806.518 381.706L807.225 382.414L805.81 383.827L805.103 383.119L805.811 382.413L806.517 383.12L806.531 383.134L806.531 383.135Z" fill="#000000" fill-opacity="1.000000" fill-rule="nonzero"/>
		</g>
		<circle id="Oval" cx="1464.000000" cy="373.707031" r="114.000000" fill="#00A991" fill-opacity="1.000000"/>
		<rect id="Rectangle" x="-227.890137" y="-780.645508" rx="80.000000" width="871.000000" height="1337.000000" transform="rotate(45 -227.890137 -780.645508)" fill="#00A991" fill-opacity="1.000000"/>
		<circle id="Oval" cx="208.708008" cy="0.354492" r="61.000000" fill="#E3E2CD" fill-opacity="1.000000"/>
	</g>
</svg>
