<svg width="39.000000" height="39.000000" viewBox="0 0 39 39" fill="none" xmlns="http://www.w3.org/2000/svg" xmlns:xlink="http://www.w3.org/1999/xlink">
	<desc>
			Created with Pixso.
	</desc>
	<defs>
		<clipPath id="clip6_317">
			<rect id="62172c34d802e6acf6ab98a6_Sera 1" rx="-0.048716" width="38.875233" height="38.875233" transform="translate(-0.103384 0.048716)" fill="white" fill-opacity="0"/>
		</clipPath>
	</defs>
	<rect id="62172c34d802e6acf6ab98a6_Sera 1" rx="-0.048716" width="38.875233" height="38.875233" transform="translate(-0.103384 0.048716)" fill="#FFFFFF" fill-opacity="0"/>
	<g clip-path="url(#clip6_317)">
		<path id="Vector" d="M19.33 0C30.09 0 38.82 8.72 38.82 19.48C38.82 30.24 30.09 38.97 19.33 38.97C8.57 38.97 -0.16 30.24 -0.16 19.48C-0.16 8.72 8.57 0 19.33 0Z" fill="#1355FF" fill-opacity="1.000000" fill-rule="evenodd"/>
		<path id="Vector" d="M15.49 26.98C13.51 26.98 11.61 26.19 10.21 24.79C8.81 23.38 8.03 21.47 8.03 19.48C8.03 17.49 8.81 15.58 10.21 14.18C11.61 12.77 13.51 11.98 15.49 11.98L15.49 26.98Z" fill="#FFFFFF" fill-opacity="1.000000" fill-rule="nonzero"/>
		<path id="Vector" d="M23.07 26.98C21.59 26.98 20.14 26.54 18.91 25.72C17.67 24.9 16.71 23.72 16.14 22.35C15.58 20.98 15.43 19.47 15.72 18.02C16.01 16.56 16.72 15.23 17.77 14.18C18.82 13.13 20.16 12.41 21.61 12.12C23.07 11.83 24.58 11.98 25.95 12.55C27.32 13.12 28.49 14.08 29.31 15.31C30.14 16.55 30.58 18 30.58 19.48L23.07 19.48L23.07 26.98Z" fill="#FFFFFF" fill-opacity="1.000000" fill-rule="nonzero"/>
	</g>
</svg>
